<svg width="49" height="42" viewBox="0 0 49 42" fill="none" xmlns="http://www.w3.org/2000/svg">
<path d="M16.16 3C14.3467 5.2 12.64 8.3 11.04 12.3C9.44 16.3 8.64 20.25 8.64 24.15C8.64 25.35 8.69333 26.25 8.8 26.85C10.1867 26.25 11.52 25.95 12.8 25.95C14.9333 25.95 16.6933 26.65 18.08 28.05C19.4667 29.45 20.16 31.2 20.16 33.3C20.16 36 19.3067 38.15 17.6 39.75C15.8933 41.25 13.8133 42 11.36 42C7.84 42 5.06667 40.75 3.04 38.25C1.01333 35.65 0 32.35 0 28.35C0 24.25 1.12 19.3 3.36 13.5C5.70667 7.7 8.53333 3.2 11.84 0L16.16 3ZM44.32 3C42.5067 5.2 40.8 8.3 39.2 12.3C37.6 16.3 36.8 20.25 36.8 24.15C36.8 25.35 36.8533 26.25 36.96 26.85C38.3467 26.25 39.68 25.95 40.96 25.95C43.0933 25.95 44.8533 26.65 46.24 28.05C47.6267 29.45 48.32 31.2 48.32 33.3C48.32 36 47.4667 38.15 45.76 39.75C44.0533 41.25 41.9733 42 39.52 42C36 42 33.2267 40.75 31.2 38.25C29.1733 35.65 28.16 32.35 28.16 28.35C28.16 24.25 29.28 19.3 31.52 13.5C33.8667 7.7 36.6933 3.2 40 0L44.32 3Z" fill="white"/>
</svg>
