<svg width="49" height="43" viewBox="0 0 49 43" fill="none" xmlns="http://www.w3.org/2000/svg">
<path d="M4 39.6001C5.81333 37.4001 7.52 34.3001 9.12 30.3001C10.72 26.3001 11.52 22.3501 11.52 18.4501C11.52 17.2501 11.4667 16.3501 11.36 15.7501C9.97333 16.3501 8.64 16.6501 7.36 16.6501C5.22667 16.6501 3.46667 15.9501 2.08 14.5501C0.693335 13.1501 0 11.4001 0 9.3001C0 6.6001 0.853331 4.5001 2.56 3.0001C4.26666 1.4001 6.34667 0.600098 8.8 0.600098C12.32 0.600098 15.0933 1.9001 17.12 4.5001C19.1467 7.0001 20.16 10.2501 20.16 14.2501C20.16 18.3501 18.9867 23.3001 16.64 29.1001C14.4 34.9001 11.6267 39.4001 8.32 42.6001L4 39.6001ZM32.16 39.6001C33.9733 37.4001 35.68 34.3001 37.28 30.3001C38.88 26.3001 39.68 22.3501 39.68 18.4501C39.68 17.2501 39.6267 16.3501 39.52 15.7501C38.1333 16.3501 36.8 16.6501 35.52 16.6501C33.3867 16.6501 31.6267 15.9501 30.24 14.5501C28.8533 13.1501 28.16 11.4001 28.16 9.3001C28.16 6.6001 29.0133 4.5001 30.72 3.0001C32.4267 1.4001 34.5067 0.600098 36.96 0.600098C40.48 0.600098 43.2533 1.9001 45.28 4.5001C47.3067 7.0001 48.32 10.2501 48.32 14.2501C48.32 18.3501 47.1467 23.3001 44.8 29.1001C42.56 34.9001 39.7867 39.4001 36.48 42.6001L32.16 39.6001Z" fill="white"/>
</svg>
